<svg width="19" height="6" viewBox="0 0 19 6" fill="none" xmlns="http://www.w3.org/2000/svg">
<path d="M0.399902 2.54556C0.178988 2.54556 -9.76622e-05 2.72464 -9.76622e-05 2.94556C-9.76622e-05 3.16647 0.178988 3.34556 0.399902 3.34556V2.94556V2.54556ZM18.6827 3.2284C18.839 3.07219 18.839 2.81892 18.6827 2.66271L16.1372 0.11713C15.981 -0.0390801 15.7277 -0.0390801 15.5715 0.11713C15.4153 0.273339 15.4153 0.526605 15.5715 0.682815L17.8342 2.94556L15.5715 5.2083C15.4153 5.36451 15.4153 5.61777 15.5715 5.77398C15.7277 5.93019 15.981 5.93019 16.1372 5.77398L18.6827 3.2284ZM0.399902 2.94556V3.34556H18.3999V2.94556V2.54556H0.399902V2.94556Z" fill="black"/>
</svg>
