<svg width="42" height="42" viewBox="0 0 42 42" fill="none" xmlns="http://www.w3.org/2000/svg">
<path fill-rule="evenodd" clip-rule="evenodd" d="M26.6255 26.3538L11.0711 34.7302C10.5986 34.9848 10.0171 34.9258 9.60501 34.5793C9.1942 34.2341 9.03407 33.6723 9.20338 33.1618L14.7513 16.3907C14.8025 16.2345 14.8839 16.0875 14.9915 15.9588C15.1004 15.8302 15.2304 15.7252 15.3748 15.6465L30.9292 7.27009C31.4017 7.01547 31.9831 7.07453 32.3953 7.42103C32.8061 7.76622 32.9662 8.32797 32.7969 8.83853L27.2489 25.6097C27.1978 25.7658 27.1164 25.9128 27.0088 26.0415C26.8998 26.1701 26.7699 26.2751 26.6255 26.3538ZM16.6361 19.0511L12.7314 30.8544L23.6776 24.96L16.6361 19.0511ZM25.3642 22.9492L29.2689 11.1459L18.3226 17.0403L25.3642 22.9492Z" fill="black"/>
</svg>
