<svg width="42" height="42" viewBox="0 0 42 42" fill="none" xmlns="http://www.w3.org/2000/svg">
<path fill-rule="evenodd" clip-rule="evenodd" d="M35.4375 13.7078V28.2922C35.4375 29.9657 34.3429 31.605 32.2731 32.8584C29.7294 34.4006 25.6318 35.4375 21 35.4375C16.3682 35.4375 12.2706 34.4006 9.72694 32.8584C7.65712 31.605 6.5625 29.9657 6.5625 28.2922V13.7078C6.5625 12.033 7.65844 10.395 9.72694 9.14156C12.2706 7.59938 16.3682 6.5625 21 6.5625C25.6318 6.5625 29.7294 7.59938 32.2731 9.14156C34.3429 10.395 35.4375 12.033 35.4375 13.7078ZM9.1875 13.7078C9.1875 14.6134 9.96975 15.3536 11.088 16.0309C13.3206 17.3854 16.9339 18.2293 21 18.2293C25.0661 18.2293 28.6794 17.3854 30.912 16.0309C32.0303 15.3536 32.8125 14.6134 32.8125 13.7078C32.8125 12.8034 32.0303 12.0632 30.912 11.3859C28.6794 10.0314 25.0661 9.1875 21 9.1875C16.9339 9.1875 13.3206 10.0314 11.088 11.3859C9.96975 12.0632 9.1875 12.8034 9.1875 13.7078ZM9.1875 21C9.1875 21.9043 9.96975 22.6446 11.088 23.3231C13.3206 24.6763 16.9339 25.5203 21 25.5203C25.0661 25.5203 28.6794 24.6763 30.912 23.3231C32.0303 22.6446 32.8125 21.9043 32.8125 21V17.9248C32.6406 18.0442 32.4608 18.1624 32.2731 18.2752C29.7294 19.8174 25.6318 20.8543 21 20.8543C16.3682 20.8543 12.2706 19.8174 9.72694 18.2752C9.53925 18.1624 9.35944 18.0442 9.1875 17.9248V21ZM32.8125 25.2171C32.6406 25.3365 32.4608 25.4533 32.2731 25.5675C29.7294 27.1097 25.6318 28.1453 21 28.1453C16.3682 28.1453 12.2706 27.1097 9.72694 25.5675C9.53925 25.4533 9.35944 25.3365 9.1875 25.2171V28.2922C9.1875 29.1966 9.96975 29.9368 11.088 30.6141C13.3206 31.9686 16.9339 32.8125 21 32.8125C25.0661 32.8125 28.6794 31.9686 30.912 30.6141C32.0303 29.9368 32.8125 29.1966 32.8125 28.2922V25.2171Z" fill="black"/>
</svg>
