<svg width="101" height="34" viewBox="0 0 101 34" fill="none" xmlns="http://www.w3.org/2000/svg">
<path fill-rule="evenodd" clip-rule="evenodd" d="M42.7299 14.7769C42.6808 14.7127 42.5961 14.687 42.5194 14.713C42.4429 14.7389 42.3914 14.8108 42.3914 14.8916V25.0895C42.3914 25.3127 42.2103 25.4938 41.9871 25.4938H40.1389C39.9157 25.4938 39.7347 25.3127 39.7347 25.0895V9.72707C39.7347 9.50384 39.9157 9.32286 40.1389 9.32286H41.3167C41.4846 9.32286 41.6428 9.40093 41.7447 9.53408L49.792 20.0397C49.8412 20.1039 49.9258 20.1297 50.0023 20.1037C50.0788 20.0777 50.1303 20.0059 50.1303 19.925V9.72707C50.1303 9.50384 50.3114 9.32286 50.5346 9.32286H52.3828C52.606 9.32286 52.787 9.50384 52.787 9.72707V25.0895C52.787 25.3127 52.606 25.4938 52.3828 25.4938H51.205C51.0372 25.4938 50.8791 25.4158 50.777 25.2825L42.7299 14.7769ZM60.848 25.7249C59.9146 25.7249 59.0806 25.5168 58.346 25.101C57.6115 24.6852 57.0401 24.1127 56.632 23.3836C56.224 22.6545 56.0199 21.8091 56.0199 20.8475V14.8094C56.0199 14.7022 56.0624 14.5994 56.1381 14.5235C56.2139 14.4477 56.3167 14.4051 56.4239 14.4051H58.1568C58.264 14.4051 58.3668 14.4477 58.4426 14.5235C58.5184 14.5994 58.561 14.7022 58.561 14.8094V20.7349C58.561 21.274 58.6495 21.7321 58.8267 22.1094C59.0037 22.4868 59.2655 22.7755 59.612 22.9758C59.9584 23.176 60.373 23.2761 60.8554 23.2761C61.5899 23.2761 62.1531 23.0566 62.5458 22.6177C62.9386 22.1787 63.135 21.5512 63.135 20.7349V14.8094C63.135 14.7022 63.1777 14.5994 63.2534 14.5235C63.3292 14.4477 63.4321 14.4051 63.5392 14.4051H65.2718C65.3793 14.4051 65.4819 14.4477 65.5576 14.5235C65.6337 14.5994 65.6761 14.7022 65.6761 14.8094V20.8504C65.6761 21.8207 65.4721 22.6716 65.064 23.4031C64.6559 24.1347 64.0888 24.7044 63.363 25.1125C62.637 25.5209 61.7987 25.7249 60.848 25.7249ZM77.9653 23.5371C78.0561 23.6089 78.1118 23.7161 78.1182 23.8317C78.1247 23.9473 78.0813 24.0602 77.9991 24.1417C77.5399 24.5972 77.0074 24.9596 76.4017 25.2281C75.6545 25.5592 74.8499 25.7249 73.9874 25.7249C72.894 25.7249 71.9045 25.4707 71.019 24.9624C70.1335 24.4541 69.4365 23.7612 68.9284 22.8833C68.4201 22.0055 68.1659 21.0275 68.1659 19.9495C68.1659 18.856 68.4201 17.8742 68.9284 17.0041C69.4365 16.1339 70.1335 15.4447 71.019 14.9365C71.9045 14.4283 72.894 14.1741 73.9874 14.1741C74.8499 14.1741 75.6545 14.3397 76.4017 14.6708C77.0074 14.9394 77.5399 15.3017 77.9988 15.7577C78.0808 15.8391 78.1242 15.9518 78.1178 16.0672C78.1113 16.1827 78.0556 16.2898 77.965 16.3614C77.6039 16.6471 77.0419 17.0909 76.7122 17.3513C76.5643 17.4681 76.3554 17.4672 76.2087 17.3493C75.9874 17.1703 75.7437 17.0244 75.4776 16.9116C75.0232 16.7191 74.5266 16.6229 73.9874 16.6229C73.3561 16.6229 72.7979 16.7653 72.3126 17.0503C71.8275 17.3352 71.4501 17.724 71.1806 18.2169C70.9111 18.7097 70.7763 19.2872 70.7763 19.9495C70.7763 20.5963 70.9111 21.17 71.1806 21.6705C71.4501 22.171 71.8275 22.5638 72.3126 22.8487C72.7979 23.1336 73.3561 23.2761 73.9874 23.2761C74.5266 23.2761 75.0232 23.1798 75.4776 22.9873C75.7437 22.8745 75.9874 22.7287 76.2087 22.5498C76.3554 22.4318 76.5643 22.431 76.7122 22.5477C77.0421 22.808 77.6039 23.2518 77.9653 23.5371ZM82.4781 9.10414C82.5996 9.00811 82.7653 8.99003 82.9048 9.05757C83.0442 9.12512 83.1329 9.26641 83.1329 9.42136V25.0895C83.1329 25.3127 82.9518 25.4938 82.7286 25.4938H80.9958C80.8886 25.4938 80.7857 25.4511 80.71 25.3753C80.6342 25.2996 80.5915 25.1967 80.5915 25.0895V10.7897C80.5915 10.6661 80.6483 10.5492 80.7454 10.4725L82.4781 9.10414ZM88.2518 14.6495C88.3736 14.5534 88.5393 14.5354 88.6786 14.6029C88.8182 14.6704 88.9066 14.8117 88.9066 14.9667V25.0905C88.9066 25.1979 88.8642 25.3005 88.7882 25.3765C88.7124 25.4523 88.6096 25.4947 88.5024 25.4947H86.7698C86.6626 25.4947 86.5597 25.4523 86.484 25.3765C86.4082 25.3005 86.3655 25.1979 86.3655 25.0905V16.3351C86.3655 16.2114 86.4221 16.0945 86.5192 16.0179L88.2518 14.6495ZM87.6361 12.3151C87.205 12.3151 86.8467 12.1716 86.5619 11.8846C86.277 11.5975 86.1346 11.2425 86.1346 10.8195C86.1346 10.3965 86.277 10.0415 86.5619 9.75443C86.8467 9.46739 87.205 9.32386 87.6361 9.32386C88.0828 9.32386 88.4446 9.46739 88.7218 9.75443C88.9989 10.0415 89.1378 10.3965 89.1378 10.8195C89.1378 11.2425 88.9989 11.5975 88.7218 11.8846C88.4446 12.1716 88.0828 12.3151 87.6361 12.3151ZM92.9212 22.489C93.0732 22.369 93.289 22.3737 93.4357 22.5003C93.7132 22.7415 94.0153 22.9349 94.3421 23.0807C94.8427 23.304 95.4086 23.4157 96.0402 23.4157C96.6099 23.4157 97.0412 23.331 97.3337 23.1616C97.6265 22.9922 97.7728 22.7457 97.7728 22.4223C97.7728 22.0835 97.6342 21.8217 97.357 21.6369C97.0796 21.4521 96.7216 21.2942 96.2828 21.1633C95.8438 21.0324 95.3817 20.8976 94.8967 20.759C94.4114 20.6204 93.9493 20.4317 93.5105 20.1931C93.0715 19.9543 92.7135 19.6271 92.4363 19.2112C92.1592 18.7954 92.0206 18.2564 92.0206 17.5941C92.0206 16.8857 92.186 16.2774 92.5172 15.7691C92.8483 15.2609 93.318 14.8682 93.9263 14.591C94.5346 14.3138 95.2623 14.1751 96.1095 14.1751C97.0026 14.1751 97.792 14.333 98.4772 14.6487C99.0366 14.9064 99.5214 15.2691 99.9322 15.737C100.005 15.8202 100.041 15.9298 100.031 16.0402C100.021 16.1505 99.9665 16.252 99.8794 16.3206C99.5401 16.5892 99.0081 17.0094 98.6849 17.2648C98.5317 17.3858 98.3137 17.3799 98.1672 17.2509C97.9521 17.0601 97.7205 16.905 97.4723 16.7856C97.0566 16.5854 96.5792 16.4853 96.0402 16.4853C95.5318 16.4853 95.1391 16.5623 94.8619 16.7163C94.5847 16.8703 94.4461 17.0936 94.4461 17.3862C94.4461 17.6942 94.5847 17.933 94.8619 18.1024C95.1391 18.2718 95.4973 18.4181 95.9361 18.5413C96.3751 18.6645 96.8372 18.7993 97.3222 18.9456C97.8073 19.0919 98.2693 19.2921 98.7084 19.5462C99.1472 19.8003 99.5054 20.1392 99.7826 20.5627C100.06 20.9862 100.198 21.5368 100.198 22.2144C100.198 23.2925 99.8209 24.1472 99.0663 24.7788C98.3118 25.4101 97.2877 25.7259 95.9939 25.7259C95.3779 25.7259 94.7849 25.6451 94.2152 25.4832C93.6453 25.3216 93.1216 25.0905 92.6442 24.7903C92.2942 24.5699 91.9772 24.3146 91.6933 24.024C91.6144 23.942 91.5739 23.8307 91.5816 23.7173C91.5895 23.6039 91.6446 23.4991 91.7338 23.4287C92.0762 23.1564 92.6025 22.7407 92.9212 22.489ZM0.0448831 23.5496C0.0174769 23.4435 0.00289861 23.3323 0.00289861 23.2177C0.00289861 23.2177 -0.00362326 13.2937 0.00289861 11.2629C0.00328224 11.1476 0.0166137 11.0303 0.0420777 10.9193C0.0675657 10.8084 0.106409 10.699 0.155755 10.5973C0.2051 10.4955 0.266866 10.3972 0.338175 10.3085C0.409508 10.2198 0.493357 10.1366 0.58368 10.0649C2.68142 8.4015 10.7925 1.99181 12.9246 0.327987C13.0597 0.222535 13.2186 0.136695 13.3762 0.0820268C13.5337 0.0273822 13.7053 0 13.8698 0C14.0344 0 14.206 0.0273822 14.3635 0.0820268C14.521 0.136695 14.6799 0.222535 14.8151 0.327987C16.7253 1.81866 23.4349 7.1189 26.3193 9.40215L27.4448 8.51326C28.0186 8.06009 28.8525 8.15803 29.3057 8.73184C29.7589 9.30567 29.6608 10.1395 29.087 10.5926C29.087 10.5926 28.5672 11.0045 27.7378 11.6612C27.7433 14.0725 27.7428 20.86 27.7369 22.6885C27.7364 22.804 27.7229 22.9215 27.6975 23.0326C27.6719 23.1436 27.633 23.2531 27.5836 23.355C27.534 23.4569 27.4721 23.5551 27.4007 23.6439C27.3292 23.7327 27.2451 23.816 27.1547 23.8876C25.036 25.5635 14.6893 33.7 14.6893 33.7C14.1147 34.1525 13.2811 34.053 12.8289 33.4785C12.3766 32.904 12.4759 32.0705 13.0504 31.6181L24.7802 22.3847C24.9739 22.2321 25.0871 21.999 25.0871 21.7524V13.7594C21.9854 16.2137 18.0123 19.3539 16.7718 20.3186C16.6064 20.4472 16.4116 20.5466 16.2182 20.6013C16.0227 20.6566 15.7951 20.6737 15.5986 20.6506C15.3968 20.6269 15.1822 20.5568 15.0073 20.459C14.8299 20.3599 14.6658 20.2139 14.5343 20.0557C14.1272 19.5661 12.6648 17.6993 12.0755 16.9457C12.0095 16.8615 11.9127 16.8071 11.8065 16.7944C11.7002 16.7817 11.5933 16.8118 11.5094 16.8781C9.83993 18.1966 2.15156 24.2685 2.15156 24.2685C1.57774 24.7217 0.743945 24.6236 0.290772 24.0498C0.170405 23.8975 0.0889056 23.7267 0.0448831 23.5496ZM24.1798 11.0918L14.3683 3.35053C14.076 3.11992 13.6637 3.11992 13.3714 3.35053L2.95879 11.566C2.76539 11.7186 2.65252 11.9514 2.65252 12.1978V20.4912C5.34313 18.3605 9.75891 14.8668 11.0138 13.8933C11.1793 13.7648 11.374 13.6653 11.5674 13.6106C11.7629 13.5553 11.9904 13.5382 12.187 13.5613C12.3888 13.585 12.6033 13.6551 12.7783 13.7529C12.9557 13.852 13.1198 13.9979 13.2513 14.1561C13.6584 14.6457 15.1208 16.5126 15.7101 17.2661C15.776 17.3503 15.8729 17.4048 15.9791 17.4175C16.0853 17.4302 16.1922 17.4 16.2762 17.3337C17.404 16.443 21.3046 13.3625 24.1798 11.0918Z" fill="#DDDDE3"/>
</svg>
