<svg width="42" height="42" viewBox="0 0 42 42" fill="none" xmlns="http://www.w3.org/2000/svg">
<path fill-rule="evenodd" clip-rule="evenodd" d="M12.7798 31.5643L6.65962 35.8562C6.25931 36.1371 5.73562 36.1712 5.30119 35.9454C4.86675 35.7197 4.59375 35.2708 4.59375 34.7812V13.0213C4.59375 9.45656 7.48781 6.5625 11.0526 6.5625H32.277C35.8417 6.5625 38.7358 9.45656 38.7358 13.0213V25.1055C38.7358 28.6703 35.8417 31.5643 32.277 31.5643H12.7798ZM12.3651 28.9393H32.277C34.3927 28.9393 36.1108 27.2213 36.1108 25.1055V13.0213C36.1108 10.9056 34.3927 9.1875 32.277 9.1875H11.0526C8.93681 9.1875 7.21875 10.9056 7.21875 13.0213V32.2573L11.6117 29.1769C11.8322 29.022 12.096 28.9393 12.3651 28.9393ZM28.8947 17.0625C29.9814 17.0625 30.8634 17.9445 30.8634 19.0312C30.8634 20.118 29.9814 21 28.8947 21C27.8079 21 26.9259 20.118 26.9259 19.0312C26.9259 17.9445 27.8079 17.0625 28.8947 17.0625ZM21.6759 17.0625C22.7627 17.0625 23.6447 17.9445 23.6447 19.0312C23.6447 20.118 22.7627 21 21.6759 21C20.5892 21 19.7072 20.118 19.7072 19.0312C19.7072 17.9445 20.5892 17.0625 21.6759 17.0625ZM14.4572 17.0625C15.5439 17.0625 16.4259 17.9445 16.4259 19.0312C16.4259 20.118 15.5439 21 14.4572 21C13.3704 21 12.4884 20.118 12.4884 19.0312C12.4884 17.9445 13.3704 17.0625 14.4572 17.0625Z" fill="black"/>
</svg>
