<svg width="42" height="42" viewBox="0 0 42 42" fill="none" xmlns="http://www.w3.org/2000/svg">
<path fill-rule="evenodd" clip-rule="evenodd" d="M22.2299 5.35105L25.9679 15.3497L36.6332 15.8156C37.1806 15.8405 37.6544 16.2015 37.8237 16.7212C37.993 17.2423 37.8211 17.8132 37.3932 18.1545L29.0391 24.7997L31.8912 35.087C32.0369 35.6147 31.8413 36.1777 31.3977 36.4993C30.9554 36.8209 30.3582 36.834 29.9014 36.5321L21.0001 30.6403L12.0987 36.5321C11.6419 36.834 11.0447 36.8209 10.6024 36.4993C10.1588 36.1777 9.96324 35.6147 10.1089 35.087L12.961 24.7997L4.60693 18.1545C4.17906 17.8132 4.00712 17.2423 4.17643 16.7212C4.34574 16.2015 4.81956 15.8405 5.36687 15.8156L16.0322 15.3497L19.7702 5.35105C19.9619 4.83786 20.4527 4.49792 21.0001 4.49792C21.5474 4.49792 22.0382 4.83786 22.2299 5.35105ZM21.0001 9.55892L18.1861 17.0835C18.0023 17.5757 17.5403 17.9117 17.014 17.934L8.98806 18.2857L15.2749 23.2864C15.6871 23.6145 15.8642 24.1565 15.7225 24.6645L13.5766 32.4056L20.2756 27.972C20.7152 27.6819 21.2849 27.6819 21.7246 27.972L28.4236 32.4056L26.2776 24.6645C26.1359 24.1565 26.3131 23.6145 26.7252 23.2864L33.0121 18.2857L24.9861 17.934C24.4598 17.9117 23.9978 17.5757 23.8141 17.0835L21.0001 9.55892Z" fill="black"/>
</svg>
