<svg width="42" height="42" viewBox="0 0 42 42" fill="none" xmlns="http://www.w3.org/2000/svg">
<path fill-rule="evenodd" clip-rule="evenodd" d="M23.3955 30.4659C22.0354 27.7666 19.0695 25.9095 15.6547 25.9095C10.9673 25.9095 7.12376 29.4098 7.12376 33.7843C7.12376 34.5093 6.53567 35.0974 5.81103 35.0974C5.08638 35.0974 4.49829 34.5093 4.49829 33.7843C4.49829 28.0114 9.46884 23.2842 15.6547 23.2842C19.4127 23.2842 22.7218 25.0288 24.741 27.6934C26.0228 26.1393 28.0219 25.1347 30.2823 25.1347C34.1814 25.1347 37.3048 28.1239 37.3048 31.7621C37.3048 32.3784 36.8041 32.8783 36.1887 32.8783C35.5733 32.8783 35.0735 32.3784 35.0735 31.7621C35.0735 29.3123 32.9078 27.3661 30.2823 27.3661C28.4088 27.3661 26.7702 28.3565 25.9845 29.815C26.518 31.0409 26.8111 32.3821 26.8111 33.7843C26.8111 34.5093 26.223 35.0974 25.4984 35.0974C24.7738 35.0974 24.1857 34.5093 24.1857 33.7843C24.1857 33.4682 24.1656 33.1568 24.1265 32.8501C24.0191 32.006 23.7678 31.2041 23.3955 30.4659ZM30.2823 13.3216C33.0717 13.3216 35.3357 15.5857 35.3357 18.3751C35.3357 21.1636 33.0717 23.4277 30.2823 23.4277C27.4939 23.4277 25.2289 21.1636 25.2289 18.3751C25.2289 15.5857 27.4939 13.3216 30.2823 13.3216ZM30.2823 15.5529C28.7247 15.5529 27.4602 16.8172 27.4602 18.3751C27.4602 19.9321 28.7247 21.1973 30.2823 21.1973C31.8399 21.1973 33.1044 19.9321 33.1044 18.3751C33.1044 16.8172 31.8399 15.5529 30.2823 15.5529ZM15.6547 6.90332C19.6393 6.90332 22.8738 10.1373 22.8738 14.1216C22.8738 18.1059 19.6393 21.3408 15.6547 21.3408C11.671 21.3408 8.43649 18.1059 8.43649 14.1216C8.43649 10.1373 11.671 6.90332 15.6547 6.90332ZM15.6547 9.52764C13.1194 9.52764 11.0611 11.5864 11.0611 14.1216C11.0611 16.6568 13.1194 18.7156 15.6547 18.7156C18.1901 18.7156 20.2484 16.6568 20.2484 14.1216C20.2484 11.5864 18.1901 9.52764 15.6547 9.52764Z" fill="black"/>
</svg>
