<svg width="42" height="42" viewBox="0 0 42 42" fill="none" xmlns="http://www.w3.org/2000/svg">
<path fill-rule="evenodd" clip-rule="evenodd" d="M33.9768 18.8462C31.7285 13.9243 26.7607 10.5 21.0001 10.5C13.1304 10.5 6.74243 16.8893 6.74243 24.7577C6.74243 25.4822 6.15443 26.0702 5.42993 26.0702C4.70543 26.0702 4.11743 25.4822 4.11743 24.7577C4.11743 15.4403 11.6827 7.875 21.0001 7.875C27.9511 7.875 33.9256 12.0842 36.5139 18.0915C37.4405 17.8159 38.3592 17.5455 39.257 17.2817C39.6573 17.1583 40.0839 17.3709 40.2282 17.7647C40.3713 18.1584 40.181 18.5955 39.7951 18.7596C38.9381 19.1336 38.06 19.5169 37.1727 19.9027C37.6347 21.441 37.8828 23.0711 37.8828 24.7577C37.8828 25.4822 37.2948 26.0702 36.5703 26.0702C35.8458 26.0702 35.2578 25.4822 35.2578 24.7577C35.2578 23.4413 35.0793 22.1655 34.7446 20.9554C29.5734 23.1879 24.4704 25.3365 21.7876 26.313C20.7547 26.6884 19.6522 26.2671 19.3267 25.3719C19.0012 24.4781 19.5747 23.4465 20.6077 23.0698C23.2904 22.0933 28.5811 20.4593 33.9768 18.8462Z" fill="black"/>
</svg>
